<?xml version="1.0" standalone="no"?>
<svg xmlns:xlink="http://www.w3.org/1999/xlink" id="wave" style="transform:rotate(180deg); transition: 0.3s" viewBox="0 0 1440 490" version="1.1" xmlns="http://www.w3.org/2000/svg"><defs><linearGradient id="sw-gradient-0" x1="0" x2="0" y1="1" y2="0"><stop stop-color="rgba(19, 17, 32, 1)" offset="0%"/><stop stop-color="rgba(19, 17, 32, 1)" offset="100%"/></linearGradient></defs><path style="transform:translate(0, 0px); opacity:1" fill="url(#sw-gradient-0)" d="M0,49L26.7,40.8C53.3,33,107,16,160,40.8C213.3,65,267,131,320,147C373.3,163,427,131,480,98C533.3,65,587,33,640,16.3C693.3,0,747,0,800,8.2C853.3,16,907,33,960,65.3C1013.3,98,1067,147,1120,138.8C1173.3,131,1227,65,1280,65.3C1333.3,65,1387,131,1440,163.3C1493.3,196,1547,196,1600,187.8C1653.3,180,1707,163,1760,138.8C1813.3,114,1867,82,1920,57.2C1973.3,33,2027,16,2080,8.2C2133.3,0,2187,0,2240,8.2C2293.3,16,2347,33,2400,40.8C2453.3,49,2507,49,2560,98C2613.3,147,2667,245,2720,236.8C2773.3,229,2827,114,2880,106.2C2933.3,98,2987,196,3040,253.2C3093.3,310,3147,327,3200,310.3C3253.3,294,3307,245,3360,245C3413.3,245,3467,294,3520,326.7C3573.3,359,3627,376,3680,318.5C3733.3,261,3787,131,3813,65.3L3840,0L3840,490L3813.3,490C3786.7,490,3733,490,3680,490C3626.7,490,3573,490,3520,490C3466.7,490,3413,490,3360,490C3306.7,490,3253,490,3200,490C3146.7,490,3093,490,3040,490C2986.7,490,2933,490,2880,490C2826.7,490,2773,490,2720,490C2666.7,490,2613,490,2560,490C2506.7,490,2453,490,2400,490C2346.7,490,2293,490,2240,490C2186.7,490,2133,490,2080,490C2026.7,490,1973,490,1920,490C1866.7,490,1813,490,1760,490C1706.7,490,1653,490,1600,490C1546.7,490,1493,490,1440,490C1386.7,490,1333,490,1280,490C1226.7,490,1173,490,1120,490C1066.7,490,1013,490,960,490C906.7,490,853,490,800,490C746.7,490,693,490,640,490C586.7,490,533,490,480,490C426.7,490,373,490,320,490C266.7,490,213,490,160,490C106.7,490,53,490,27,490L0,490Z"/></svg>